<svg width="250px" height="52.442005px" viewBox="0 0 250 52.442005" version="1.1" xmlns:xlink="http://www.w3.org/1999/xlink" xmlns="http://www.w3.org/2000/svg">
  <defs>
    <linearGradient gradientUnits="userSpaceOnUse" x1="-0.13959633" y1="26.095955" x2="60.51066" y2="26.095955" id="gradient_1">
      <stop offset="0%" stop-color="#A2A4A6"></stop>
      <stop offset="12.941199%" stop-color="#CACBCD"></stop>
      <stop offset="23.1373%" stop-color="#E4E5E6"></stop>
      <stop offset="30.1961%" stop-color="#EFEFF0"></stop>
      <stop offset="41.176502%" stop-color="#B3B5B7"></stop>
      <stop offset="56.0784%" stop-color="#CFD1D2"></stop>
      <stop offset="76.0784%" stop-color="#ADAFB1"></stop>
      <stop offset="85.8824%" stop-color="#DCDDDF"></stop>
      <stop offset="100%" stop-color="#DEDFE0"></stop>
    </linearGradient>
  </defs>
  <g id="logo">
    <g id="Group">
      <g id="Группа-масок">
        <g id="svg_2">
          <path d="M30.396 0.125048L30.2516 0.125048L24.1375 10.6997L0.139496 52.2014L0.139496 52.3039L0.26594 52.3039C0.745109 52.057 1.22747 51.8157 1.71381 51.5794C1.85699 51.5096 1.99938 51.4418 2.14376 51.3732L2.14774 51.3709L2.25326 51.3212L2.25605 51.3192L2.35948 51.2702L2.36546 51.2674L2.46868 51.2194L2.47466 51.2166L2.57181 51.1705L2.58486 51.1646L2.68122 51.1197L2.69437 51.1137L2.78753 51.0711L2.80348 51.0629L2.89873 51.019L2.91288 51.0132L3.00096 50.9721L3.02318 50.9622L3.11047 50.9224L3.13348 50.9114L3.21868 50.8727L3.24169 50.8625L3.32788 50.8227L3.35199 50.8128L3.43131 50.7769L3.46339 50.7631L3.5444 50.726L3.5717 50.7141L3.65789 50.6752L3.68001 50.6653L3.77208 50.6244L3.78912 50.6173L3.8756 50.5785L3.90061 50.5675L3.9878 50.5296L4.00972 50.5197L4.10408 50.4788L4.11912 50.4717L4.22036 50.428L4.22823 50.424L4.31671 50.3861L4.34172 50.3751L4.42891 50.3384L4.45083 50.3281L4.54628 50.2875L4.56143 50.2815L4.64831 50.2436L4.67362 50.2335L4.75463 50.1988L4.78392 50.1866L4.86722 50.1519L4.89502 50.14L4.97553 50.106L5.00532 50.0931L5.07158 50.0651L5.11871 50.0462L5.15997 50.0292L5.23101 49.9992L5.24406 49.9944L5.45161 49.9086L5.48967 49.8927C5.77156 49.7771 6.05414 49.6644 6.33811 49.5528L6.3409 49.5508L6.43924 49.513L6.45319 49.507L6.66294 49.4251L6.67689 49.4203L6.75301 49.3903L6.79028 49.3762L6.88862 49.3383L6.89938 49.3344L6.99892 49.2966L7.01168 49.2917L7.10205 49.2578L7.12616 49.2487L7.20916 49.2169L7.23846 49.2058L7.32455 49.1739L7.35075 49.1639L7.44202 49.1301L7.46185 49.1222L7.56219 49.0851L7.57325 49.0812L7.6696 49.0453L7.68754 49.0394L7.78678 49.0023L7.79893 48.9984L7.8902 48.9645L7.91412 48.9557L7.99851 48.9258L8.0286 48.9147L8.10881 48.8859L8.1417 48.8738L8.22619 48.8441L8.25399 48.8339L8.34437 48.8012L8.36628 48.7941L8.45975 48.7602L8.47968 48.7534L8.56806 48.7223L8.59396 48.7133L8.68035 48.6825L8.70815 48.6734L8.79543 48.6426L8.82164 48.6336L8.90773 48.6037L8.93583 48.5938L9.01315 48.5678L9.0544 48.5539L9.12744 48.529L9.16659 48.5149L9.24372 48.4892L9.27979 48.4762L9.3599 48.4493L9.39397 48.4384L9.47249 48.4115L9.50945 48.3994L9.58867 48.3725L9.62285 48.3615L9.70495 48.3346L9.73594 48.3236L9.82033 48.2957L9.85132 48.2858L9.93352 48.2589L9.9667 48.2478L10.05 48.221L10.0799 48.2109L10.1691 48.1821L10.1924 48.175L10.2837 48.1462L10.3087 48.1382L10.3978 48.1095L10.4229 48.1013L10.515 48.0716L10.5371 48.0645L10.6284 48.0365L10.6534 48.0286L10.7407 48.0006L10.7728 47.9908L10.8521 47.9659L10.8891 47.9549L10.9703 47.93L11.0025 47.9198L11.0905 47.8921L11.1147 47.8851L11.2079 47.8571L11.2301 47.85L11.3193 47.8232L11.3495 47.8141L11.4367 47.7873L11.4637 47.7794L11.5519 47.7534L11.58 47.7444L11.6653 47.7195L11.7013 47.7085L11.7764 47.6867L11.8196 47.6737L11.8949 47.6517L11.9338 47.6409L12.0151 47.6169L12.0452 47.6079L12.1314 47.5831L12.1647 47.5731L12.2468 47.5503L12.2808 47.54L12.365 47.5163L12.3962 47.5073L12.4804 47.4833L12.5125 47.4742L12.6006 47.4493L12.6288 47.4415L12.7129 47.4185L12.7502 47.4076L12.8303 47.3855L12.8655 47.3756L12.9476 47.3539L12.9817 47.3437L13.0659 47.3208L13.1 47.3117L13.1821 47.29L13.2154 47.2809L13.3015 47.2569L13.3317 47.2491L13.4189 47.2261L13.447 47.2182L13.5383 47.1942L13.5633 47.1871L13.6534 47.1643L13.6835 47.1563L13.7739 47.1323L13.7969 47.1264L13.8912 47.1027L13.9132 47.0964L14.0095 47.0716L14.0345 47.0656L14.1226 47.0427L14.1568 47.0337L14.246 47.0119L14.2642 47.0068L14.3625 46.982L14.3855 46.9769L14.4836 46.952L14.4978 46.9489L14.5982 46.924L14.626 46.917L14.7192 46.8941L14.7374 46.8902L14.8357 46.8661L14.8596 46.8602L14.956 46.8364L14.971 46.8334L15.0734 46.8084L15.0933 46.8034L15.1947 46.7797L15.2007 46.7786L15.311 46.7526L15.3288 46.7486L15.4324 46.7238L15.4371 46.7226L15.5494 46.6969L15.5625 46.6938L15.7893 46.6421L16.0258 46.5892L16.0309 46.588L16.2646 46.5363L16.2685 46.5352L16.501 46.4844L16.5231 46.4804C16.6747 46.4477 16.827 46.4157 16.9794 46.3838L17.0084 46.3778C17.5176 46.273 18.0293 46.1735 18.5425 46.0809L18.5434 46.0798L18.6367 46.0639L18.6668 46.0577L18.7802 46.0379L18.7853 46.0367L18.8945 46.017L18.9075 46.015L19.1443 45.9741L19.1482 45.9732L19.2585 45.9542L19.2705 45.952L19.3637 45.9362L19.3947 45.9311L19.4819 45.9173L19.516 45.9113L19.6044 45.8963L19.6386 45.8913L19.7227 45.8774L19.7607 45.8714L19.839 45.8585L19.8833 45.8514L19.9634 45.8385L20.0044 45.8317L20.0848 45.8195L20.1268 45.8127L20.2109 45.7997L20.2471 45.7938L20.3292 45.7817L20.3715 45.7749L20.4517 45.7627L20.4938 45.7567L20.5691 45.7449L20.6179 45.7378L20.6882 45.728L20.7413 45.72L20.8076 45.7098L20.8658 45.7009L20.9269 45.6929L20.988 45.6841L21.0511 45.675L21.1106 45.6661L21.1804 45.657L21.2296 45.6502L21.303 45.6392L21.355 45.6321L21.4271 45.6222L21.4763 45.6164L21.5465 45.6062L21.6028 45.5993L21.6678 45.5903L21.7241 45.5833L21.7901 45.5742L21.8504 45.5663L21.9155 45.5584L21.9686 45.5513L22.0439 45.5414L22.0911 45.5355L22.1672 45.5265L22.2153 45.5205L22.2855 45.5114L22.3438 45.5047L22.4049 45.4977L22.4652 45.4897L22.533 45.4815L22.5893 45.4756L22.6556 45.4677L22.7116 45.4606L22.7797 45.4527L22.838 45.4468L22.9023 45.4389L22.9594 45.4329L23.0276 45.4247L23.0847 45.4188L23.1538 45.4109L23.205 45.4058L23.2763 45.3978L23.3343 45.392L23.3974 45.3849L23.4557 45.379L23.5227 45.3719L23.5841 45.366L23.6452 45.36L23.7052 45.3541L23.7715 45.347L23.8296 45.341L23.8979 45.3341L23.9499 45.3292L24.0212 45.3221L24.0803 45.317L24.1426 45.3112L24.2046 45.3052L24.2669 45.2993L24.333 45.2933L24.393 45.2882L24.4504 45.2832L24.5194 45.2773L24.5797 45.2713L24.6397 45.2662L24.706 45.2602L24.7642 45.2555L24.8353 45.2504L24.8884 45.2453L24.9578 45.2394L25.0138 45.2354L25.0839 45.2295L25.1402 45.2256L25.2053 45.2205L25.2656 45.2153L25.3358 45.2105L25.3889 45.2066L25.456 45.2016L25.5171 45.1964L25.5802 45.1925L25.6445 45.1877L25.7016 45.1837L25.7689 45.1786L25.8309 45.1746L25.8963 45.1707L25.9523 45.1668L26.0204 45.1625L26.0807 45.1585L26.147 45.1537L26.203 45.1506L26.2711 45.1466L26.3343 45.1428L26.3965 45.1388L26.4595 45.1348L26.5218 45.1317L26.5849 45.1277L26.6492 45.1246L26.7102 45.1206L26.7725 45.1179L26.8428 45.1139L26.8988 45.1108L26.9649 45.1077L27.0241 45.1049L27.0982 45.1009L27.1505 45.0989L27.2196 45.0949L27.2767 45.093L27.3469 45.0899L27.404 45.0868L27.4683 45.084L27.5306 45.082L27.5967 45.0789L27.6567 45.076L27.723 45.0741L27.7833 45.0709L27.8503 45.069L27.9105 45.067L27.9748 45.0639L28.0358 45.062L28.105 45.06L28.1632 45.058L28.2264 45.056L28.2894 45.054L28.3668 45.052L28.4148 45.0501L28.5 45.0481L28.5401 45.0469L28.6333 45.0441L28.6666 45.043L28.7598 45.041L28.7939 45.0401L28.886 45.0381L28.922 45.0381L29.0133 45.0359L29.0494 45.0351L29.141 45.0331L29.177 45.0331L29.262 45.0311L29.3053 45.0311L29.3944 45.0292L29.4317 45.0292L29.5198 45.028L29.5598 45.0272L29.6241 45.026L29.6904 45.026L29.7324 45.0252L29.8157 45.0252L29.8888 45.0241L29.9431 45.0241L30.0302 45.0232L30.0703 45.0232L30.1956 45.0232L30.1976 45.0232L30.3259 45.0232L30.4543 45.0232L30.4563 45.0232L30.5817 45.0232L30.6249 45.0232L30.7079 45.0241L30.7661 45.0241L30.8363 45.0252L30.9264 45.0252L30.9606 45.026L31.0307 45.026L31.091 45.0272L31.1381 45.028L31.2194 45.0292L31.2655 45.0292L31.3457 45.0311L31.3968 45.0311L31.473 45.0331L31.5202 45.0331L31.6003 45.0351L31.6484 45.0359L31.7276 45.037L31.7756 45.039L31.855 45.0401L31.9033 45.041L31.9823 45.043L32.0315 45.0449L32.1076 45.0469L32.1667 45.0481L32.2342 45.0501L32.3012 45.052L32.3583 45.054L32.4424 45.056L32.4837 45.058L32.563 45.06L32.611 45.062L32.6983 45.065L32.7355 45.0658L32.8197 45.0698L32.8628 45.0709L32.951 45.0749L32.9882 45.076L33.0762 45.08L33.1144 45.0809L33.2056 45.0848L33.2398 45.0868L33.3269 45.0908L33.3662 45.0919L33.4563 45.0969L33.4923 45.0978L33.5785 45.1017L33.6177 45.1037L33.7129 45.1088L33.741 45.1108L33.8343 45.1159L33.8684 45.1168L33.9707 45.1226L33.9897 45.1238L34.093 45.1297L34.1171 45.1309L34.2223 45.1368L34.2404 45.1377L34.3468 45.1448L34.3658 45.1459L34.4789 45.1526L34.488 45.1526L34.6014 45.1605L34.6145 45.1617L34.7328 45.1688L34.7368 45.1696L34.8521 45.1766L34.8641 45.1775L34.9843 45.1865L34.9855 45.1865L35.1056 45.1945L35.1116 45.1956L35.229 45.2034L35.238 45.2046L35.3515 45.2134L35.3634 45.2134L35.4828 45.2236L35.4847 45.2236L35.605 45.2323L35.6101 45.2334L35.7324 45.2433L35.8546 45.2535L35.8577 45.2535C44.1439 45.9473 51.9876 48.1832 59.1068 51.6622L59.1136 51.6661L59.2139 51.715L59.2199 51.7178L59.3143 51.7637L59.3322 51.7727L59.4135 51.8137L59.4476 51.8295L59.5059 51.8594L59.5618 51.8874L59.611 51.9114L59.6693 51.9402L59.7153 51.9642L59.7764 51.995L59.8217 52.0168L59.8907 52.0519L59.918 52.0657L60.003 52.1086L60.0211 52.1177L60.1144 52.1654L60.1215 52.1694L60.3852 52.3039L60.5705 52.3039L35.0275 8.13472L30.396 0.125048L30.396 0.125048ZM30.3239 20.0471L41.0377 38.6224C38.0706 36.3556 34.3567 35.0038 30.3239 35.0038C26.2933 35.0038 22.5802 36.3556 19.6124 38.6204L30.3239 20.0471L30.3239 20.0471Z" id="svg_3" fill="url(#gradient_1)" fill-rule="evenodd" stroke="none"></path>
          <path d="M41.0366 38.6226L30.3248 20.0475L19.6125 38.6206C22.5804 36.3549 26.2922 35.0043 30.324 35.0043C34.3568 35.0043 38.0684 36.3549 41.0366 38.6226L41.0366 38.6226ZM30.3248 45.0234C19.3768 45.0234 9.06526 47.712 0 52.442L30.3248 0L60.6508 52.442C51.5847 47.712 41.2722 45.0234 30.3248 45.0234L30.3248 45.0234Z" id="svg_4" fill="#ED1B2F" fill-rule="evenodd" stroke="none"></path>
          <path d="M80.7991 28.9098L89.3323 28.9098L85.1145 16.8709L80.7991 28.9098L80.7991 28.9098ZM91.2434 33.54L78.9368 33.54C77.6136 36.6601 75.8969 40.7551 74.818 43.5811L69.4749 43.5811L83.2512 9.02162L86.8791 9.02162L100.655 43.5811L95.3605 43.5811L91.2434 33.54L91.2434 33.54Z" id="svg_5" fill="#2B2A29" fill-rule="evenodd" stroke="none"></path>
          <path d="M209.487 33.2152C209.487 37.0153 205.366 38.9422 201.742 38.9422C198.068 38.9422 193.944 37.0661 193.944 33.2642L193.944 9.07074L188.879 9.07074L188.879 33.2152C188.879 40.275 195.631 43.9284 201.742 43.9284C207.7 43.9284 214.553 40.275 214.553 33.2642L214.553 9.07074L209.487 9.07074L209.487 33.2152L209.487 33.2152Z" id="svg_6" fill="#2B2A29" stroke="none"></path>
          <path d="M249.753 31.0911C248.412 25.5618 242.502 24.3274 237.735 23.7355C234.011 23.3896 230.086 22.9448 229.841 19.3901C229.739 18.2059 229.989 17.0686 230.683 16.1804C232.075 14.4039 234.655 13.6135 236.991 13.5658C240.019 13.5149 243.395 14.8487 244.091 17.9597L249.059 17.7603C248.163 11.4414 242.603 8.67617 237.24 8.67617C233.214 8.67617 229.045 10.2572 226.708 13.2685C225.22 15.1934 224.624 17.5141 224.824 19.8338L224.824 19.786C225.369 26.9941 231.726 28.1783 237.14 28.7218C240.613 29.0687 244.192 29.5112 244.789 32.129C244.885 32.5726 244.935 32.9682 244.935 33.3132C244.935 36.868 240.864 38.9435 237.14 38.9435C233.911 38.9435 229.989 37.2635 229.64 34.0538L229.64 34.2522L229.591 33.5105L224.525 33.6093L224.575 34.5472C225.22 40.7196 231.726 43.8796 237.091 43.8796C243.347 43.8796 250 40.0279 250 33.3629C250 32.6721 249.901 31.8328 249.753 31.0911L249.753 31.0911Z" id="svg_7" fill="#2B2A29" stroke="none"></path>
          <path d="M173.603 28.7216L165.9 28.7216C165.668 30.3444 165.193 31.8827 164.548 33.3291L164.548 33.4117L171.659 33.4117C169.387 36.7692 165.542 38.9851 161.165 38.9851C154.167 38.9851 148.497 33.3462 148.497 26.3921C148.497 19.438 154.167 13.8008 161.165 13.8008C166.381 13.8008 170.856 16.9358 172.798 21.4149L178.125 21.4149C176.007 14.111 169.249 8.76275 161.22 8.76275C151.496 8.76275 143.614 16.5991 143.614 26.2654C143.614 35.9308 151.496 43.767 161.22 43.767C170.102 43.767 177.426 37.2219 178.633 28.7216L175.041 28.7216L173.603 28.7216L173.603 28.7216Z" id="svg_8" fill="#2B2A29" stroke="none"></path>
          <path d="M115.137 28.7092L115.137 13.719L122.097 13.719C126.263 13.719 129.639 17.0772 129.639 21.2172C129.639 25.358 126.263 28.7144 122.097 28.7144L115.137 28.7092L115.137 28.7092ZM134.155 21.2172C134.155 14.7348 129.067 9.45127 122.647 9.06048L121.89 9.02262L118.13 9.02262L110.17 9.02262L110.17 43.5832L115.137 43.5832L115.137 33.4036L121.143 33.4036L129.638 43.5832L136.142 43.5832L126.714 32.4296C131.088 30.5655 134.155 26.2492 134.155 21.2172L134.155 21.2172Z" id="svg_9" fill="#2B2A29" fill-rule="evenodd" stroke="none"></path>
        </g>
      </g>
    </g>
  </g>
</svg>